<?xml version="1.0" encoding="UTF-8" standalone="no"?>
<!DOCTYPE svg PUBLIC "-//W3C//DTD SVG 1.1//EN"
 "http://www.w3.org/Graphics/SVG/1.1/DTD/svg11.dtd">
<!-- Generated by graphviz version 11.0.0 (20240428.1522)
 -->
<!-- Title: PROV Pages: 1 -->
<svg width="638pt" height="214pt"
 viewBox="0.00 0.00 637.88 214.00" xmlns="http://www.w3.org/2000/svg" xmlns:xlink="http://www.w3.org/1999/xlink">
<g id="graph0" class="graph" transform="scale(1 1) rotate(0) translate(4 210)">
<title>PROV</title>
<polygon fill="white" stroke="none" points="-4,4 -4,-210 633.88,-210 633.88,4 -4,4"/>
<!-- http://example.org/DecomposeTableMigrator&#45;19347652605Insert1 -->
<g id="node1" class="node">
<title>http://example.org/DecomposeTableMigrator&#45;19347652605Insert1</title>
<g id="a_node1"><a xlink:href="http://example.org/DecomposeTableMigrator-19347652605Insert1" xlink:title="DecomposeTableMigrator&#45;19347652605Insert1">
<polygon fill="#9fb1fc" stroke="#0000ff" points="549.88,-134 269.88,-134 269.88,-98 549.88,-98 549.88,-134"/>
<text text-anchor="middle" x="409.88" y="-110.58" font-family="Times New Roman,serif" font-size="14.00">DecomposeTableMigrator&#45;19347652605Insert1</text>
</a>
</g>
</g>
<!-- http://example.org/Michael -->
<g id="node5" class="node">
<title>http://example.org/Michael</title>
<g id="a_node5"><a xlink:href="http://example.org/Michael" xlink:title="Michael">
<polygon fill="#fdb266" stroke="black" points="308.81,-193.56 259.88,-206 210.94,-193.56 210.99,-173.44 308.76,-173.44 308.81,-193.56"/>
<text text-anchor="middle" x="259.88" y="-182.57" font-family="Times New Roman,serif" font-size="14.00">Michael</text>
</a>
</g>
</g>
<!-- http://example.org/DecomposeTableMigrator&#45;19347652605Insert1&#45;&gt;http://example.org/Michael -->
<g id="edge3" class="edge">
<title>http://example.org/DecomposeTableMigrator&#45;19347652605Insert1&#45;&gt;http://example.org/Michael</title>
<path fill="none" stroke="black" d="M372.41,-134.48C350.39,-144.76 322.54,-157.75 300.06,-168.25"/>
<polygon fill="black" stroke="black" points="298.78,-164.98 291.2,-172.38 301.74,-171.32 298.78,-164.98"/>
<text text-anchor="middle" x="371.11" y="-147.08" font-family="Times New Roman,serif" font-size="8.00">assoc</text>
</g>
<!-- &#45;attrs0 -->
<g id="node2" class="node">
<title>&#45;attrs0</title>
<polygon fill="none" stroke="gray" points="623.88,-62 209.88,-62 209.88,0 629.88,0 629.88,-56 623.88,-62"/>
<polyline fill="none" stroke="gray" points="623.88,-62 623.88,-56"/>
<polyline fill="none" stroke="gray" points="629.88,-56 623.88,-56"/>
<text text-anchor="start" x="219.88" y="-46.5" font-family="Times New Roman,serif" font-size="10.00">endTransTime:</text>
<text text-anchor="start" x="284.88" y="-46.5" font-family="Times New Roman,serif" font-size="10.00">2024&#45;06&#45;24T16:03:48.013</text>
<text text-anchor="start" x="219.88" y="-33.5" font-family="Times New Roman,serif" font-size="10.00">startTransTime:</text>
<text text-anchor="start" x="284.88" y="-33.5" font-family="Times New Roman,serif" font-size="10.00">2024&#45;06&#45;24T16:03:47.131</text>
<text text-anchor="start" x="219.88" y="-20.5" font-family="Times New Roman,serif" font-size="10.00">executed:</text>
<text text-anchor="start" x="284.88" y="-20.5" font-family="Times New Roman,serif" font-size="10.00">true</text>
<text text-anchor="start" x="219.88" y="-7.5" font-family="Times New Roman,serif" font-size="10.00">instruction:</text>
<text text-anchor="start" x="284.75" y="-7.5" font-family="Times New Roman,serif" font-size="10.00">insert INTO developer_sub_a select id, name, surname from developer_sub_a_new;</text>
</g>
<!-- &#45;attrs0&#45;&gt;http://example.org/DecomposeTableMigrator&#45;19347652605Insert1 -->
<g id="edge1" class="edge">
<title>&#45;attrs0&#45;&gt;http://example.org/DecomposeTableMigrator&#45;19347652605Insert1</title>
<path fill="none" stroke="gray" stroke-dasharray="5,2" d="M416.21,-62.43C414.78,-74.28 413.2,-87.42 411.97,-97.6"/>
</g>
<!-- http://example.org/DecomposeTableMigrator&#45;19347652605 -->
<g id="node3" class="node">
<title>http://example.org/DecomposeTableMigrator&#45;19347652605</title>
<g id="a_node3"><a xlink:href="http://example.org/DecomposeTableMigrator-19347652605" xlink:title="DecomposeTableMigrator&#45;19347652605">
<polygon fill="#9fb1fc" stroke="#0000ff" points="241.75,-134 0,-134 0,-98 241.75,-98 241.75,-134"/>
<text text-anchor="middle" x="120.88" y="-110.58" font-family="Times New Roman,serif" font-size="14.00">DecomposeTableMigrator&#45;19347652605</text>
</a>
</g>
</g>
<!-- http://example.org/DecomposeTableMigrator&#45;19347652605&#45;&gt;http://example.org/Michael -->
<g id="edge4" class="edge">
<title>http://example.org/DecomposeTableMigrator&#45;19347652605&#45;&gt;http://example.org/Michael</title>
<path fill="none" stroke="black" d="M155.59,-134.48C175.82,-144.67 201.33,-157.52 222.07,-167.96"/>
<polygon fill="black" stroke="black" points="220.26,-170.97 230.76,-172.34 223.41,-164.72 220.26,-170.97"/>
<text text-anchor="middle" x="168.13" y="-123.9" font-family="Times New Roman,serif" font-size="8.00">assoc</text>
</g>
<!-- &#45;attrs1 -->
<g id="node4" class="node">
<title>&#45;attrs1</title>
<polygon fill="none" stroke="gray" points="185.88,-62 11.88,-62 11.88,0 191.88,0 191.88,-56 185.88,-62"/>
<polyline fill="none" stroke="gray" points="185.88,-62 185.88,-56"/>
<polyline fill="none" stroke="gray" points="191.88,-56 185.88,-56"/>
<text text-anchor="start" x="21.88" y="-46.5" font-family="Times New Roman,serif" font-size="10.00">endTransTime:</text>
<text text-anchor="start" x="86.75" y="-46.5" font-family="Times New Roman,serif" font-size="10.00">2024&#45;06&#45;24T16:03:48.417</text>
<text text-anchor="start" x="21.88" y="-33.5" font-family="Times New Roman,serif" font-size="10.00">startTransTime:</text>
<text text-anchor="start" x="86.75" y="-33.5" font-family="Times New Roman,serif" font-size="10.00">2024&#45;06&#45;24T16:03:48.080</text>
<text text-anchor="start" x="21.88" y="-20.5" font-family="Times New Roman,serif" font-size="10.00">executed:</text>
<text text-anchor="start" x="86.88" y="-20.5" font-family="Times New Roman,serif" font-size="10.00">true</text>
<text text-anchor="start" x="21.88" y="-7.5" font-family="Times New Roman,serif" font-size="10.00">instruction:</text>
<text text-anchor="start" x="86.88" y="-7.5" font-family="Times New Roman,serif" font-size="10.00">DecomposeTable</text>
</g>
<!-- &#45;attrs1&#45;&gt;http://example.org/DecomposeTableMigrator&#45;19347652605 -->
<g id="edge2" class="edge">
<title>&#45;attrs1&#45;&gt;http://example.org/DecomposeTableMigrator&#45;19347652605</title>
<path fill="none" stroke="gray" stroke-dasharray="5,2" d="M108.84,-62.43C111.55,-74.28 114.56,-87.42 116.89,-97.6"/>
</g>
</g>
</svg>
